<?xml version="1.0" standalone="no"?>
<!DOCTYPE svg PUBLIC "-//W3C//DTD SVG 20010904//EN"
 "http://www.w3.org/TR/2001/REC-SVG-20010904/DTD/svg10.dtd">
<svg version="1.0" xmlns="http://www.w3.org/2000/svg"
 width="300.000000pt" height="169.000000pt" viewBox="0 0 300.000000 169.000000"
 preserveAspectRatio="xMidYMid meet">
<metadata>
Created by potrace 1.10, written by Peter Selinger 2001-2011
</metadata>
<g transform="translate(0.000000,169.000000) scale(0.100000,-0.100000)"
fill="#000000" stroke="none">
<path d="M0 845 l0 -845 1500 0 1500 0 0 845 0 845 -1500 0 -1500 0 0 -845z
m2709 78 c74 -23 160 -105 195 -183 25 -55 28 -71 24 -143 -6 -135 -67 -231
-186 -289 l-67 -33 -1155 0 -1155 0 -62 29 c-122 56 -193 167 -193 301 0 119
44 208 135 274 88 63 18 60 1271 61 1035 0 1146 -2 1193 -17z"/>
<path d="M323 889 c-64 -25 -131 -88 -163 -154 -18 -39 -24 -66 -24 -125 0
-125 54 -214 166 -270 l61 -30 1157 0 1157 0 61 31 c148 73 208 243 140 391
-34 73 -95 132 -164 158 -54 20 -70 20 -1197 19 -1118 0 -1143 0 -1194 -20z
m567 -29 c0 -17 -7 -20 -51 -20 -46 0 -50 -2 -38 -16 9 -12 24 -15 51 -11 32
4 38 2 38 -14 0 -16 -7 -19 -44 -19 -46 0 -68 -13 -40 -24 9 -3 31 -6 50 -6
27 0 34 -4 34 -20 0 -16 -5 -19 -30 -14 -16 4 -43 2 -60 -4 -27 -10 -30 -9
-30 9 0 10 5 19 11 19 8 0 8 4 2 13 -14 17 -14 110 0 119 7 4 33 8 60 8 40 0
47 -3 47 -20z m-202 -220 c-6 -18 -357 -238 -361 -226 -2 6 -5 52 -6 101 -1
50 -6 140 -10 200 -4 61 -6 113 -4 117 5 10 385 -181 381 -192z m642 165 c0
-7 -5 -37 -11 -65 l-11 -50 -86 -2 -87 -2 82 -3 c81 -4 82 -4 85 -31 2 -16 11
10 23 68 l20 95 113 3 113 3 35 -35 c26 -26 34 -43 35 -73 l1 -38 8 35 c4 19
11 52 14 73 l7 37 176 -2 176 -3 9 -30 c5 -16 12 -37 14 -45 3 -9 15 2 36 33
l30 47 174 0 c197 0 186 6 163 -86 -11 -44 -12 -44 -58 -46 l-46 -1 43 -4 c39
-4 42 -6 42 -34 0 -17 4 -28 10 -24 5 3 7 12 4 20 -16 41 46 138 103 161 32
14 233 20 245 8 3 -3 2 -20 -2 -37 -4 -18 -11 -44 -14 -59 l-6 -28 -98 -1
c-78 -2 -87 -3 -47 -8 53 -7 95 -25 95 -41 0 -6 14 -10 30 -10 60 0 66 -90 9
-154 -47 -54 -83 -66 -201 -66 -58 0 -107 3 -110 6 -3 3 -2 20 2 37 4 18 11
44 14 60 l6 27 98 1 c53 1 86 3 72 6 -14 2 -40 6 -59 9 -18 3 -44 17 -57 31
-27 29 -51 25 -56 -9 -2 -19 -10 -23 -45 -26 l-42 -3 -11 -57 c-17 -86 -13
-82 -78 -82 -32 0 -61 3 -64 6 -3 3 3 44 13 92 23 106 23 105 -1 97 -30 -10
-33 12 -12 101 10 44 17 84 15 89 -2 6 -30 8 -63 7 -59 -4 -62 -5 -93 -48 -18
-24 -35 -43 -39 -44 -3 0 -13 19 -20 43 l-15 42 -61 3 c-68 3 -74 -2 -86 -70
-7 -37 -8 -38 -54 -40 l-47 -1 43 -4 c37 -4 42 -7 42 -29 0 -17 5 -24 19 -24
26 0 32 -11 22 -46 -6 -25 -13 -30 -52 -35 l-44 -6 43 -1 c47 -2 48 -4 29 -77
l-13 -50 -176 -2 -177 -2 -5 27 c-3 15 -8 47 -12 72 l-8 45 -15 -70 -16 -70
-63 -3 c-72 -3 -69 -9 -46 103 9 42 14 79 11 81 -2 2 -12 -37 -23 -88 l-19
-93 -85 -3 c-110 -4 -161 14 -198 70 -18 28 -27 54 -27 84 0 41 -2 44 -28 44
-25 0 -27 3 -21 23 21 70 74 128 149 163 41 20 66 24 143 24 74 0 92 -3 92
-15z m592 -101 c21 -73 25 -79 52 -84 46 -8 53 -65 20 -173 -5 -16 0 -18 47
-15 l53 3 13 64 c7 36 20 72 28 81 20 22 19 30 -5 30 -11 0 -20 3 -20 6 0 9
110 163 121 170 17 10 -3 -23 -55 -94 -46 -62 -55 -79 -36 -67 6 4 18 4 26 1
13 -5 12 -11 -8 -38 -13 -18 -30 -64 -38 -103 l-15 -70 -54 -3 c-80 -5 -80 -5
-63 76 19 88 12 118 -25 117 -25 0 -29 5 -49 75 -22 72 -30 119 -19 108 3 -2
15 -40 27 -84z m-1050 -41 c20 -18 24 -63 6 -81 -15 -15 -63 -16 -89 -2 -25
14 -26 75 -1 89 26 16 63 13 84 -6z m-68 -129 c3 -9 20 -14 46 -14 33 0 40 -3
40 -20 0 -17 -7 -20 -44 -20 -24 0 -51 -2 -59 -5 -11 -5 -14 4 -14 39 -1 33 2
43 12 40 7 -3 16 -12 19 -20z m-48 -109 c-6 -31 -4 -35 14 -35 16 0 20 6 20
31 0 39 24 34 28 -5 3 -25 7 -28 38 -24 30 4 34 1 34 -19 0 -22 -3 -23 -80
-23 l-80 0 0 55 c0 44 3 55 16 55 13 0 15 -7 10 -35z"/>
<path d="M337 791 c10 -15 36 -56 58 -89 l40 -62 120 1 120 0 -175 89 c-96 49
-177 90 -178 90 -2 0 4 -13 15 -29z"/>
<path d="M348 663 c-4 -61 1 -123 11 -123 4 0 17 20 28 44 l21 43 -24 42 c-14
22 -27 41 -29 41 -2 0 -5 -21 -7 -47z"/>
<path d="M417 598 c-8 -18 -27 -59 -41 -92 -15 -32 -25 -60 -23 -63 6 -5 176
112 197 135 9 9 22 18 30 20 8 2 19 8 25 13 5 5 -20 9 -67 9 -42 0 -83 3 -92
6 -10 4 -19 -4 -29 -28z"/>
<path d="M1095 781 c-83 -38 -164 -161 -105 -161 17 0 20 -7 20 -41 0 -55 25
-104 65 -129 26 -16 50 -20 127 -20 l96 0 17 91 c11 55 23 93 32 96 23 9 24
-1 8 -73 -8 -38 -18 -79 -20 -92 -5 -22 -3 -23 47 -20 l52 3 14 63 c8 39 18
62 27 62 13 0 17 -12 31 -92 l6 -38 54 0 c61 0 60 -2 43 83 -11 51 -10 60 6
77 16 18 16 20 2 20 -21 0 -21 9 -1 49 20 39 13 86 -18 118 -20 21 -30 23
-133 23 l-112 0 -19 -92 c-14 -66 -24 -93 -34 -93 -10 0 -14 9 -12 28 l3 27
-81 0 c-44 0 -80 -4 -80 -9 0 -5 -3 -16 -6 -25 -5 -12 0 -16 20 -16 22 0 26
-4 26 -30 0 -26 4 -30 26 -30 34 0 26 -24 -9 -28 -31 -4 -82 40 -73 63 4 11
-2 15 -24 15 -39 0 -38 14 4 56 33 33 36 34 119 34 l85 0 7 33 c4 17 9 40 11
50 5 15 -4 17 -88 17 -68 0 -104 -5 -133 -19z m425 -96 c0 -11 -12 -15 -45
-15 -42 0 -54 7 -38 23 3 4 24 7 45 7 27 0 38 -4 38 -15z"/>
<path d="M1463 683 c9 -2 25 -2 35 0 9 3 1 5 -18 5 -19 0 -27 -2 -17 -5z"/>
<path d="M1665 718 c-10 -46 -20 -88 -22 -94 -2 -7 7 -9 27 -6 28 4 31 2 26
-19 -25 -110 -36 -161 -36 -165 0 -8 179 -4 184 4 3 5 8 28 12 50 l7 42 -37 0
c-25 0 -36 4 -36 15 0 11 11 15 39 15 26 0 41 5 45 16 11 27 7 34 -20 34 -24
0 -26 3 -20 30 5 29 5 30 -34 30 -29 0 -40 4 -40 15 0 11 12 15 44 15 42 0 44
1 50 36 4 19 10 42 13 50 4 11 -12 14 -89 14 l-95 0 -18 -82z m162 -224 c-3
-3 -12 -4 -19 -1 -8 3 -5 6 6 6 11 1 17 -2 13 -5z"/>
<path d="M2251 750 c-6 -27 -14 -68 -17 -90 -6 -38 -5 -40 20 -40 22 0 26 -4
21 -22 -29 -133 -35 -160 -35 -164 0 -2 22 -4 50 -4 54 0 50 -6 74 103 6 24
11 27 45 27 34 0 40 4 50 30 7 23 16 30 35 30 14 0 29 -6 33 -14 14 -24 66
-46 111 -46 31 0 42 -4 40 -12 -3 -9 -35 -14 -101 -16 l-96 -3 -6 -32 c-4 -18
-9 -40 -11 -49 -5 -16 5 -18 103 -18 90 0 113 3 141 20 42 26 72 76 72 123 0
34 -2 37 -29 37 -18 0 -35 8 -44 20 -17 25 -58 40 -108 40 -28 0 -39 4 -37 13
3 8 35 13 100 15 l96 3 7 35 c3 20 9 42 12 50 7 20 -196 20 -235 0 -52 -27
-75 -62 -80 -121 -4 -50 -6 -55 -29 -55 -22 0 -24 3 -18 30 6 30 6 30 -34 30
-30 0 -41 4 -41 15 0 11 12 15 44 15 l43 0 10 50 10 50 -93 0 -92 0 -11 -50z
m386 -256 c-3 -3 -12 -4 -19 -1 -8 3 -5 6 6 6 11 1 17 -2 13 -5z"/>
<path d="M1090 650 c-9 -16 -8 -20 5 -20 8 0 15 2 15 4 0 2 3 11 6 20 9 23
-13 20 -26 -4z"/>
<path d="M1625 650 c-4 -12 -5 -24 -2 -27 3 -2 8 5 12 17 4 12 5 24 2 27 -3 2
-8 -5 -12 -17z"/>
<path d="M1130 591 c0 -26 27 -51 53 -50 20 1 20 2 -3 8 -20 6 -24 13 -22 34
2 19 -2 27 -13 27 -8 0 -15 -9 -15 -19z"/>
<path d="M1634 590 c-19 -19 -19 -25 -8 -88 7 -37 13 -69 14 -72 2 -6 39 149
39 168 1 18 -22 14 -45 -8z"/>
<path d="M797 634 c-12 -12 4 -24 34 -24 19 0 29 5 29 15 0 15 -50 22 -63 9z"/>
</g>
</svg>
