<svg xmlns="http://www.w3.org/2000/svg" height="800" width="1200" fill="none" viewBox="-13.98 -5.3 121.16 31.8"><path fill="#fff" d="M0 .1001h15.6l-1.4 4.5h-4v16.5h-5v-16.6H.1zm41.2002 0h16l-1.4 4.5h-4.4v16.5h-5.1v-16.6h-5.1zM16.6001 6.8h5V21h-5zm7-6.8h5v9.8l5-4.9h6l-6.3 6.1 7 10h-5.5l-4.7-7-1.5 1.4v5.5h-5zM76.5 0h5v9.8l5-4.9h6L86.2 11l7 10h-5.5L83 14l-1.5 1.4v5.5h-5zM19.1001 5.1001c1.3807 0 2.5-1.1193 2.5-2.5s-1.1193-2.5-2.5-2.5-2.5 1.1193-2.5 2.5 1.1193 2.5 2.5 2.5z"/><path fill="#25F4EE" d="M56.5001 12.5c0-4.5 3.5-8.2 7.9-8.5h-.7c-4.7 0-8.6 3.8-8.6 8.6 0 4.7 3.8 8.6 8.6 8.6h.7c-4.4-.5-7.9-4.2-7.9-8.7z"/><path fill="#FE2C55" d="M66.3 3.8999h-.8c4.4.3 7.9 4 7.9 8.5s-3.5 8.2-7.9 8.5h.8c4.7 0 8.6-3.8 8.6-8.6 0-4.5-3.8-8.4-8.6-8.4z"/><path fill="#fff" d="M64.9999 3.8999c-4.7 0-8.6 3.8-8.6 8.6 0 4.7 3.8 8.6 8.6 8.6s8.6-3.8 8.6-8.6c0-4.7-3.9-8.6-8.6-8.6zm0 12.8c-2.3 0-4.2-1.9-4.2-4.2 0-2.3 1.9-4.2 4.2-4.2 2.3 0 4.2 1.9 4.2 4.2 0 2.3-1.9 4.2-4.2 4.2z"/></svg>